<svg height="90" width="60" xmlns="http://www.w3.org/2000/svg" xmlns:xlink="http://www.w3.org/1999/xlink">
  <defs>
    <path id="path-1" d="M0 9.057h20.93V.05H0v9.007z"/>
    <path id="path-3" d="M17.258 11.402V.215H.34v11.187h16.92z"/>
  </defs>
  <ellipse cx="30" cy="3.5" rx="30" ry="3.5" fill="#F7F9FA" transform="translate(0 78)"/>
  <ellipse cx="30" cy="3.5" rx="12" ry="1.5" fill="#E9EAEC" id="shadow" transform="translate(0 78)"/>
  <g id="Person-7" transform="translate(11.5)">
    <path d="M37.674 18.812c0 10.39-8.433 18.811-18.837 18.811S0 29.201 0 18.812C0 8.422 8.433 0 18.837 0s18.837 8.422 18.837 18.812" id="Fill-1" fill="#A76A4A"/>
    <path d="M36.28 27.68a3.138 3.138 0 0 1-3.14 3.136A3.138 3.138 0 0 1 30 27.681a3.138 3.138 0 0 1 3.14-3.135 3.138 3.138 0 0 1 3.14 3.135" id="Fill-3" fill="#FDCC85"/>
    <path d="M7.674 27.68a3.138 3.138 0 0 1-3.14 3.136 3.138 3.138 0 0 1-3.139-3.135 3.138 3.138 0 0 1 3.14-3.135 3.138 3.138 0 0 1 3.14 3.135" id="Fill-5" fill="#FDCC85"/>
    <path d="M23.72 49.244h-9.767c-7.32 0-13.255 5.927-13.255 13.238v6.27c0 1.54 1.25 2.787 2.79 2.787h30.698a2.789 2.789 0 0 0 2.79-2.786v-6.271c0-7.31-5.934-13.238-13.255-13.238" id="Fill-7" fill="#FFE2AF"/>
    <path d="M23.896 49.253l.523 6.262-3.88-.166-1.702 4.346-1.702-4.346-2.484.166v-6.27h-.698C6.633 49.244.698 55.17.698 62.481v6.27c0 1.54 1.25 2.787 2.79 2.787h30.698a2.789 2.789 0 0 0 2.79-2.787v-6.27c0-7.252-5.84-13.134-13.08-13.229" id="Fill-9" fill="#F1F2F1"/>
    <g id="Group-13" transform="translate(8.372 71.49)">
      <mask id="mask-2" fill="#fff">
        <use xlink:href="#path-1"/>
      </mask>
      <path d="M7.998 8.037L0 .05h20.93l-7.998 7.987a3.491 3.491 0 0 1-4.934 0" id="Fill-11" fill="#F1F2F1" mask="url(#mask-2)"/>
    </g>
    <path d="M18.837 55.515a4.183 4.183 0 0 1-4.186-4.18V41.58h8.372v9.754a4.183 4.183 0 0 1-4.186 4.18" id="Fill-14" fill="#FFE2AF"/>
    <path d="M23.023 47.154s-3.125.697-4.186.697-4.186-.697-4.186-.697v-1.393s3.125.696 4.186.696 4.186-.696 4.186-.696v1.393z" id="Fill-16" fill="#292929" opacity=".2"/>
    <path d="M7.326 66.314c-.579 0-1.047.468-1.047 1.045v4.18h2.093v-4.18c0-.577-.468-1.045-1.046-1.045" id="Fill-18" fill="#292929" opacity=".2"/>
    <path d="M30.349 66.314c-.579 0-1.047.468-1.047 1.045v4.18h2.093v-4.18c0-.577-.468-1.045-1.046-1.045" id="Fill-20" fill="#292929" opacity=".2"/>
    <path d="M18.836 37.707c-2.329 0-4.234 1.903-4.234 4.229v.336c0-2.326 1.905-4.228 4.234-4.228 2.33 0 4.234 1.902 4.234 4.228v-.336c0-2.326-1.905-4.229-4.234-4.229" id="Fill-22" fill="#373535"/>
    <path d="M18.837 46.457c-8.477 0-15.349-6.862-15.349-15.327V17.892c0-8.465 6.872-15.328 15.35-15.328 8.476 0 15.348 6.863 15.348 15.328V31.13c0 8.465-6.872 15.327-15.349 15.327" id="Fill-24" fill="#FFE2AF"/>
    <path d="M20.495 31.792a6.003 6.003 0 0 1-3.317.002" id="Fill-26" fill="#FDCC85"/>
    <path d="M18.833 32.722c-.628 0-1.25-.087-1.848-.259a.696.696 0 1 1 .385-1.339c.948.272 1.981.272 2.931-.001a.698.698 0 0 1 .387 1.339 6.713 6.713 0 0 1-1.855.26" id="Fill-28" fill="#FDCC85"/>
    <path d="M22.556 36.314c1.041 0 1.74 1.06 1.354 2.024a5.464 5.464 0 0 1-5.074 3.43c-2.3 0-4.268-1.42-5.073-3.43-.387-.965.313-2.024 1.353-2.024h7.44z" id="Fill-30" fill="#524758"/>
    <path d="M30.037 34.36c0 .508-.826.92-1.845.92-1.018 0-1.844-.412-1.844-.92 0-.51.826-.922 1.844-.922 1.019 0 1.845.413 1.845.921" id="Fill-32" fill="#FBC5A0"/>
    <path d="M10.743 34.36c0 .508-.826.92-1.845.92-1.018 0-1.844-.412-1.844-.92 0-.51.826-.922 1.844-.922 1.019 0 1.845.413 1.845.921" id="Fill-34" fill="#FBC5A0"/>
    <path d="M21.297 38.18h-4.89c-.833 0-1.51-.675-1.51-1.507v-.36h7.909v.36c0 .832-.676 1.507-1.51 1.507" id="Fill-36" fill="#FEFEFE"/>
    <path d="M18.837 39.748c-1.063 0-2 .552-2.548 1.38.762.404 1.626.64 2.548.64.923 0 1.786-.236 2.548-.64a3.054 3.054 0 0 0-2.548-1.38" id="Fill-38" fill="#F37F65"/>
    <path d="M26.229 30.967a3.793 3.793 0 0 1-3.791-3.786c0-2.088 1.7-3.787 3.79-3.787a3.793 3.793 0 0 1 3.792 3.787c0 2.087-1.701 3.786-3.791 3.786m-14.748 0a3.793 3.793 0 0 1-3.79-3.786c0-2.088 1.7-3.787 3.79-3.787a3.793 3.793 0 0 1 3.792 3.787c0 2.087-1.701 3.786-3.792 3.786m14.748-8.964c-2.1 0-3.91 1.256-4.723 3.053l-.48-.138a7.03 7.03 0 0 0-3.896 0l-.872.251a5.192 5.192 0 0 0-4.777-3.166 5.186 5.186 0 0 0-5.184 5.178 5.187 5.187 0 0 0 5.184 5.177 5.187 5.187 0 0 0 5.185-5.177c0-.227-.02-.448-.048-.668l.898-.258a5.63 5.63 0 0 1 3.124 0l.471.136c-.04.258-.067.52-.067.79a5.187 5.187 0 0 0 5.185 5.177 5.187 5.187 0 0 0 5.184-5.177 5.186 5.186 0 0 0-5.184-5.178" id="Fill-40" fill="#2D2D2D"/>
    <path d="M27.227 27.298a1.046 1.046 0 1 1-2.092-.003 1.046 1.046 0 0 1 2.092.003" id="Fill-42" fill="#2D2D2D"/>
    <path d="M12.576 27.298a1.046 1.046 0 1 1-2.092-.003 1.046 1.046 0 0 1 2.092.003" id="Fill-44" fill="#2D2D2D"/>
    <g id="Group-48" transform="translate(20.93 3.211)">
      <mask id="mask-4" fill="#fff">
        <use xlink:href="#path-3"/>
      </mask>
      <path d="M17.107 3.349c.814 3.717-1.704 6.664-6.275 7.663-6.018 1.315-9.596-.818-10.411-4.535-.703-3.21 3.203-8.628 9.297-5.125 4.96 2.852 6.575-1.72 7.389 1.997" id="Fill-46" fill="#A76A4A" mask="url(#mask-4)"/>
    </g>
    <path d="M23.825 19.285a17.09 17.09 0 0 0 10.23-3.371 15.167 15.167 0 0 0-.282-1.55 15.688 15.688 0 0 1-9.948 3.528c-7.001 0-13.051-4.598-15.085-11.064-.376.375-.73.771-1.066 1.183 2.44 6.63 8.812 11.274 16.15 11.274" id="Fill-49" fill="#292929" opacity=".2"/>
    <path d="M18.66.054c-4.554 0-8.73 1.62-11.982 4.313 1.015 8.142 7.965 14.445 16.393 14.445a16.506 16.506 0 0 0 13.19-6.562C33.595 5.127 26.721.054 18.66.054" id="Fill-51" fill="#A76A4A"/>
    <path d="M5.885 5.852A18.675 18.675 0 0 0 .698 17.875a6.58 6.58 0 0 0 8.609-6.256 6.571 6.571 0 0 0-3.422-5.767" id="Fill-53" fill="#A76A4A"/>
    <path d="M6.487 22.307a.697.697 0 0 0 .54-.254c.754-.916 2.08-1.86 5.67-1.028a.696.696 0 1 0 .316-1.356c-3.34-.776-5.583-.298-7.064 1.498a.697.697 0 0 0 .538 1.14" id="Fill-55" fill="#A76A4A"/>
    <path d="M24.394 21.025c3.59-.832 4.916.112 5.67 1.029a.697.697 0 0 0 1.078-.887c-1.48-1.797-3.725-2.276-7.064-1.498a.696.696 0 1 0 .316 1.356" id="Fill-57" fill="#A76A4A"/>
    <path d="M14.651 51.4v-2.852c-.67.388-1.625.81-2.093 1.393-.797.994-1.395 1.913-1.395 3.484 0 1.3.827 2.837 1.581 3.968a1.552 1.552 0 0 0 2.463.168l1.928-2.213S14.65 54.122 14.65 51.4" id="Fill-59" fill="#AAABAE"/>
    <path d="M23.023 51.4v-2.852c.67.388 1.626.81 2.093 1.393.798.994 1.396 1.913 1.396 3.484 0 1.3-.828 2.837-1.582 3.968a1.552 1.552 0 0 1-2.462.168l-1.928-2.213s2.483-1.226 2.483-3.949" id="Fill-61" fill="#AAABAE"/>
    <path d="M19.535 59.796a.697.697 0 1 1-1.395-.001.697.697 0 0 1 1.395.001" id="Fill-63" fill="#AAABAE"/>
    <path d="M19.535 63.179a.697.697 0 1 1-1.395-.002.697.697 0 0 1 1.395.002" id="Fill-65" fill="#AAABAE"/>
  </g>
</svg>