<svg width="55" height="87" xmlns="http://www.w3.org/2000/svg" xmlns:xlink="http://www.w3.org/1999/xlink">
  <defs>
    <path id="a" d="M.077 11.25h20.93V0H.077z"/>
    <path id="c" d="M0 .177v11.476h11.387V.177H0z"/>
    <path id="e" d="M6.66 6.182V.146H.672v6.036h5.99z"/>
    <path id="g" d="M6.264.252H.62V5.94h5.644V.252z"/>
  </defs>
  <g id="girl1" fill="none" fill-rule="evenodd">
    <path d="M44.54 45.251a1.71 1.71 0 0 1-1.702 1.716c-.94 0-1.702-.768-1.702-1.716s.762-1.715 1.702-1.715 1.703.767 1.703 1.715M47.034 41.121a1.71 1.71 0 0 1-1.702 1.716c-.94 0-1.702-.768-1.702-1.716s.762-1.715 1.702-1.715 1.702.767 1.702 1.715" fill="#4D4C4E"/><path d="M45.955 43.604a1.71 1.71 0 0 1-1.702 1.716c-.94 0-1.702-.768-1.702-1.716s.762-1.715 1.702-1.715 1.702.767 1.702 1.715M50.825 38.911a1.71 1.71 0 0 1-1.702 1.716c-.94 0-1.702-.768-1.702-1.716s.761-1.715 1.702-1.715c.94 0 1.702.767 1.702 1.715M51.914 32.369a1.71 1.71 0 0 1-1.702 1.715c-.94 0-1.702-.767-1.702-1.715 0-.948.761-1.716 1.702-1.716.94 0 1.702.768 1.702 1.716" fill="#4D4C4E"/><path d="M51.449 35.21a2.335 2.335 0 0 1-2.326 2.344 2.335 2.335 0 0 1-2.326-2.344 2.335 2.335 0 0 1 2.326-2.344 2.335 2.335 0 0 1 2.326 2.344" fill="#4D4C4E"/><path d="M49.311 32.06a1.81 1.81 0 0 1-1.803 1.817 1.81 1.81 0 0 1-1.804-1.818 1.81 1.81 0 0 1 1.804-1.817 1.81 1.81 0 0 1 1.803 1.817" fill="#4D4C4E"/><path d="M49.756 33.759a1.71 1.71 0 0 1-1.702 1.715c-.94 0-1.703-.768-1.703-1.715 0-.948.762-1.716 1.703-1.716.94 0 1.702.768 1.702 1.716M45.898 45.41c0 .51-.41.923-.915.923a.919.919 0 0 1-.915-.923c0-.51.41-.922.915-.922.506 0 .915.413.915.922" fill="#4D4C4E"/><path d="M32.96 55.998h-9.767c-7.32 0-13.256 5.982-13.256 13.36v6.328c0 1.553 1.25 2.812 2.79 2.812h30.698c1.542 0 2.791-1.259 2.791-2.812v-6.328c0-7.378-5.935-13.36-13.256-13.36" fill="#B68F65"/><path d="M28.077 61.623c-2.313 0-4.187-1.888-4.187-4.218V47.56h8.373v9.844c0 2.33-1.874 4.218-4.186 4.218" fill="#B68F65"/><path d="M32.263 53.889s-3.125.703-4.186.703c-1.062 0-4.187-.703-4.187-.703v-1.406s3.125.703 4.187.703c1.06 0 4.186-.703 4.186-.703v1.406z" fill="#292929" opacity=".2"/><path d="M11.224 37.211c0 1.167-.94 2.113-2.097 2.113A2.105 2.105 0 0 1 7.03 37.21c0-1.167.939-2.113 2.097-2.113s2.097.946 2.097 2.113" fill="#4D4C4E"/><path d="M9.66 33.759c0 2.266-1.824 4.103-4.072 4.103-2.25 0-4.072-1.837-4.072-4.103 0-2.267 1.823-4.104 4.072-4.104 2.248 0 4.071 1.837 4.071 4.104" fill="#4D4C4E"/><path d="M9.553 39.324c0 1.215-.977 2.2-2.183 2.2a2.192 2.192 0 0 1-2.183-2.2c0-1.215.978-2.2 2.183-2.2 1.206 0 2.183.985 2.183 2.2" fill="#4D4C4E"/><path d="M13.08 43.034c0 1.589-1.279 2.877-2.855 2.877-1.577 0-2.854-1.288-2.854-2.877 0-1.59 1.277-2.877 2.854-2.877 1.576 0 2.855 1.288 2.855 2.877" fill="#4D4C4E"/><path d="M15.938 46.874c0 1.546-1.243 2.798-2.776 2.798a2.787 2.787 0 0 1-2.777-2.798 2.788 2.788 0 0 1 2.777-2.798c1.533 0 2.776 1.253 2.776 2.798" fill="#4D4C4E"/><path d="M51.1 27.873c0 12.815-10.308 23.203-23.023 23.203-12.716 0-23.024-10.388-23.024-23.203C5.053 15.06 15.361 4.67 28.077 4.67 40.792 4.67 51.1 15.06 51.1 27.873" fill="#4D4C4E"/><path d="M46.684 31.614c0 10.455-8.41 18.93-18.784 18.93-10.374 0-18.783-8.475-18.783-18.93s8.41-18.93 18.783-18.93c10.374 0 18.784 8.475 18.784 18.93" fill="#4D4C4E"/><path d="M17.611 35.608c0 1.941-1.562 3.515-3.488 3.515s-3.488-1.574-3.488-3.515c0-1.942 1.562-3.516 3.488-3.516s3.488 1.574 3.488 3.516" fill="#8C7052"/><path d="M12.728 38.42c.771 0 1.395.788 1.395 1.758 0 .399-.106.766-.283 1.062-.255.422-.658.696-1.113.696-.77 0-1.395-.788-1.395-1.759 0-.97.625-1.757 1.396-1.757z" stroke="#FEC94B" stroke-width=".7"/><path d="M45.518 35.608c0 1.941-1.562 3.515-3.488 3.515s-3.488-1.574-3.488-3.515c0-1.942 1.562-3.516 3.488-3.516s3.488 1.574 3.488 3.516" fill="#8C7052"/><path d="M43.426 38.42c.77 0 1.395.788 1.394 1.758 0 .399-.105.766-.283 1.062-.254.422-.658.696-1.112.696-.77 0-1.395-.788-1.395-1.759 0-.97.625-1.757 1.396-1.757z" stroke="#FEC94B" stroke-width=".7"/><g transform="translate(17.535 74.983)"><mask id="b" fill="#fff"><use xlink:href="#a"/></mask><path d="M21.007 3.295c0 4.393-4.686 7.955-10.465 7.955C4.762 11.25.077 7.688.077 3.295c0-4.393 20.93-4.393 20.93 0" fill="#EAC463" mask="url(#b)"/></g><path d="M28.077 53.186c-8.477 0-15.35-6.926-15.35-15.469v-13.36c0-8.542 6.873-15.468 15.35-15.468 8.476 0 15.348 6.926 15.348 15.469v13.359c0 8.543-6.872 15.469-15.348 15.469" fill="#B68F65"/><path d="M35.751 35.96c0 .581-.469 1.054-1.047 1.054a1.051 1.051 0 0 1-1.046-1.055c0-.582.469-1.054 1.046-1.054.578 0 1.047.472 1.047 1.054M22.495 35.96c0 .581-.469 1.054-1.046 1.054a1.051 1.051 0 0 1-1.047-1.055c0-.582.469-1.054 1.047-1.054.577 0 1.046.472 1.046 1.054" fill="#2D2D2D"/><path d="M28.965 41.108c-.432.485-1.379.504-1.776.001" stroke="#997862" stroke-width="1.4" stroke-linecap="round"/><path d="M29.906 47.505c-.89.998-2.839 1.038-3.658.002" stroke="#ED3A52" stroke-width="1.4" stroke-linecap="round"/><path d="M21.426 31.426c-1.402-.104-2.64.665-3.117 1.644M34.727 31.426c1.402-.104 2.64.665 3.117 1.644" stroke="#4D4C4E" stroke-width="1.4" stroke-linecap="round"/><path d="M52.98 26.801c0 1.757-1.413 3.182-3.157 3.182-1.743 0-3.157-1.425-3.157-3.182s1.414-3.182 3.157-3.182c1.744 0 3.157 1.425 3.157 3.182M17.54 25.118c0 .51-.41.923-.915.923a.919.919 0 0 1-.916-.923c0-.51.41-.922.916-.922s.915.412.915.922M8.939 12.518a2.631 2.631 0 0 1-2.62 2.64 2.631 2.631 0 0 1-2.621-2.64 2.631 2.631 0 0 1 2.62-2.641 2.631 2.631 0 0 1 2.62 2.64" fill="#4D4C4E"/><path d="M21.907 14.694c0 4.37-3.516 7.914-7.853 7.914S6.2 19.064 6.2 14.694c0-4.37 3.516-7.915 7.853-7.915s7.853 3.544 7.853 7.915" fill="#4D4C4E"/><g transform="translate(.093 13.81)"><mask id="d" fill="#fff"><use xlink:href="#c"/></mask><path d="M11.387 5.915c0 3.169-2.55 5.738-5.694 5.738S0 9.083 0 5.915C0 2.745 2.549.177 5.693.177c3.145 0 5.694 2.569 5.694 5.738" fill="#4D4C4E" mask="url(#d)"/></g><path d="M6.646 27.11c0 1.725-1.389 3.124-3.1 3.124-1.713 0-3.101-1.399-3.101-3.124 0-1.726 1.388-3.125 3.1-3.125 1.712 0 3.1 1.4 3.1 3.125M54.886 20.345c0 1.828-1.47 3.31-3.284 3.31-1.813 0-3.283-1.482-3.283-3.31 0-1.827 1.47-3.31 3.283-3.31 1.814 0 3.284 1.483 3.284 3.31M14.167 18.382c0 .982-.79 1.778-1.765 1.778a1.772 1.772 0 0 1-1.764-1.778c0-.983.79-1.78 1.764-1.78.975 0 1.765.797 1.765 1.78M45.165 16.388c0 .986-.793 1.786-1.772 1.786s-1.772-.8-1.772-1.786c0-.987.793-1.786 1.772-1.786s1.772.8 1.772 1.786M38.59 25.238a1.926 1.926 0 0 1-1.918 1.933 1.926 1.926 0 0 1-1.918-1.933c0-1.067.86-1.933 1.918-1.933 1.06 0 1.918.866 1.918 1.933M31.537 8.359a2.587 2.587 0 0 1-2.577 2.597 2.587 2.587 0 0 1-2.577-2.597A2.587 2.587 0 0 1 28.96 5.76a2.587 2.587 0 0 1 2.577 2.598" fill="#4D4C4E"/><path d="M50.212 20.438a1.938 1.938 0 0 1-1.93 1.946 1.938 1.938 0 0 1-1.93-1.946c0-1.074.863-1.945 1.93-1.945 1.065 0 1.93.87 1.93 1.945M36.579 23.546a1.71 1.71 0 0 1-1.703 1.716c-.94 0-1.702-.768-1.702-1.716s.762-1.715 1.702-1.715 1.703.767 1.703 1.715M38.715 7.443a1.69 1.69 0 0 1-1.683 1.696 1.69 1.69 0 0 1-1.683-1.696 1.69 1.69 0 0 1 1.683-1.697c.93 0 1.683.76 1.683 1.697M41.204 25.702a1.71 1.71 0 0 1-1.703 1.715c-.94 0-1.702-.768-1.702-1.715 0-.948.762-1.716 1.702-1.716s1.703.768 1.703 1.716M34.451 15.662c0 2.382-1.915 4.313-4.28 4.313-2.362 0-4.278-1.931-4.278-4.313 0-2.381 1.916-4.313 4.279-4.313 2.364 0 4.28 1.932 4.28 4.313" fill="#4D4C4E"/><path d="M42.261 5.812a2.015 2.015 0 0 1-2.007 2.023 2.015 2.015 0 0 1-2.007-2.023c0-1.118.898-2.023 2.007-2.023s2.007.905 2.007 2.023M48.857 6.434a2.624 2.624 0 0 1-2.614 2.634 2.624 2.624 0 0 1-2.613-2.634 2.624 2.624 0 0 1 2.613-2.635 2.624 2.624 0 0 1 2.614 2.635M27.546 14.715a1.8 1.8 0 0 1-1.793 1.808 1.8 1.8 0 0 1-1.794-1.808 1.8 1.8 0 0 1 1.794-1.807 1.8 1.8 0 0 1 1.793 1.807M37.146 26.467c0 1.553-1.25 2.813-2.79 2.813-1.542 0-2.791-1.26-2.791-2.813 0-1.553 1.25-2.812 2.79-2.812 1.542 0 2.791 1.259 2.791 2.812M18.59 7.465c0 1.545-1.243 2.798-2.776 2.798-1.534 0-2.777-1.253-2.777-2.798 0-1.545 1.243-2.798 2.777-2.798 1.533 0 2.777 1.253 2.777 2.798" fill="#4D4C4E"/><path d="M54.846 10.651c0 2.126-1.71 3.85-3.82 3.85s-3.82-1.724-3.82-3.85c0-2.126 1.71-3.85 3.82-3.85s3.82 1.724 3.82 3.85" fill="#4D4C4E"/><g transform="translate(48.233 13.108)"><mask id="f" fill="#fff"><use xlink:href="#e"/></mask><path d="M6.66 3.164c0 1.667-1.34 3.018-2.994 3.018-1.654 0-2.995-1.35-2.995-3.018C.671 1.497 2.012.146 3.666.146c1.654 0 2.995 1.351 2.995 3.018" fill="#4D4C4E" mask="url(#f)"/></g><path d="M24.856 5.503A2.657 2.657 0 0 1 22.21 8.17a2.657 2.657 0 0 1-2.646-2.667 2.657 2.657 0 0 1 2.646-2.667 2.657 2.657 0 0 1 2.646 2.667M45.246 24.605a2.633 2.633 0 0 1-2.623 2.643A2.633 2.633 0 0 1 40 24.605a2.633 2.633 0 0 1 2.623-2.643 2.633 2.633 0 0 1 2.623 2.643M44.258 4.22a2.545 2.545 0 0 1-2.535 2.555 2.545 2.545 0 0 1-2.535-2.555 2.545 2.545 0 0 1 2.535-2.554c1.4 0 2.535 1.144 2.535 2.554M24.566 22.131a2.462 2.462 0 0 1-3.498.138 2.508 2.508 0 0 1-.136-3.524 2.462 2.462 0 0 1 3.497-.138 2.508 2.508 0 0 1 .137 3.524M32.538 20.553c0 .968-.78 1.754-1.74 1.754a1.748 1.748 0 0 1-1.742-1.754c0-.97.78-1.755 1.741-1.755.962 0 1.741.786 1.741 1.755M53.535 24.086a2.76 2.76 0 0 1-2.75 2.77 2.76 2.76 0 0 1-2.748-2.77 2.76 2.76 0 0 1 2.749-2.77 2.76 2.76 0 0 1 2.749 2.77" fill="#4D4C4E"/><g transform="translate(33.581 .451)"><mask id="h" fill="#fff"><use xlink:href="#g"/></mask><path d="M6.264 3.096C6.264 4.666 5 5.94 3.442 5.94S.62 4.666.62 3.096C.62 1.525 1.884.25 3.442.25s2.822 1.274 2.822 2.845" fill="#4D4C4E" mask="url(#h)"/></g><path d="M34.51 5.194c0 1.646-1.325 2.98-2.958 2.98-1.634 0-2.958-1.334-2.958-2.98s1.324-2.98 2.958-2.98c1.633 0 2.957 1.334 2.957 2.98M13.63 22.268a1.71 1.71 0 0 1-1.702 1.716c-.94 0-1.703-.768-1.703-1.716 0-.947.762-1.715 1.703-1.715.94 0 1.702.768 1.702 1.715M9.62 25.811a2.1 2.1 0 0 1-2.09 2.107 2.099 2.099 0 0 1-2.09-2.107c0-1.164.935-2.107 2.09-2.107a2.1 2.1 0 0 1 2.09 2.107" fill="#4D4C4E"/><path d="M21.023 21.85c0 2.735-2.2 4.953-4.915 4.953-2.714 0-4.914-2.218-4.914-4.954 0-2.736 2.2-4.953 4.914-4.953 2.715 0 4.915 2.217 4.915 4.953" fill="#4D4C4E"/><path d="M16.914 28.576c0 2.33-1.874 4.22-4.186 4.22s-4.186-1.89-4.186-4.22 1.874-4.218 4.186-4.218 4.186 1.888 4.186 4.218" fill="#4D4C4E"/><path d="M18.539 27.27a2.384 2.384 0 0 1-2.375 2.393 2.384 2.384 0 0 1-2.375-2.394 2.384 2.384 0 0 1 2.375-2.393 2.384 2.384 0 0 1 2.375 2.393M21.26 6.33c0 2.16-1.738 3.912-3.882 3.912S13.496 8.49 13.496 6.33c0-2.161 1.738-3.913 3.882-3.913S21.26 4.17 21.26 6.33M29.167 4.931c0 1.31-1.053 2.371-2.353 2.371a2.361 2.361 0 0 1-2.352-2.37c0-1.31 1.053-2.372 2.352-2.372 1.3 0 2.353 1.062 2.353 2.371" fill="#4D4C4E"/><path d="M29.167 9.927c0 3.056-2.459 5.535-5.492 5.535s-5.492-2.479-5.492-5.535c0-3.057 2.459-5.535 5.492-5.535s5.492 2.478 5.492 5.535M10.873 24.715c0 1.13-.909 2.044-2.028 2.044a2.036 2.036 0 0 1-2.028-2.044c0-1.13.907-2.044 2.028-2.044 1.12 0 2.028.915 2.028 2.044" fill="#4D4C4E"/><path d="M26.229 20.328a4.306 4.306 0 0 1-6.12.137 4.386 4.386 0 0 1-.137-6.169 4.305 4.305 0 0 1 6.12-.137 4.386 4.386 0 0 1 .137 6.169M36.672 22.718c0 1.15-.925 2.083-2.067 2.083a2.076 2.076 0 0 1-2.067-2.083c0-1.15.926-2.084 2.067-2.084 1.142 0 2.067.934 2.067 2.084" fill="#4D4C4E"/><path d="M35.227 23.517a2.383 2.383 0 0 1-2.374 2.392 2.384 2.384 0 0 1-2.375-2.392 2.384 2.384 0 0 1 2.375-2.393c1.31 0 2.374 1.07 2.374 2.393M50.402 25.764c0 3.883-3.123 7.031-6.977 7.031-3.853 0-6.976-3.148-6.976-7.031 0-3.883 3.123-7.031 6.976-7.031 3.854 0 6.977 3.148 6.977 7.03" fill="#4D4C4E"/><path d="M39.672 19.582c0 2.271-1.826 4.112-4.08 4.112-2.253 0-4.08-1.84-4.08-4.112 0-2.271 1.827-4.112 4.08-4.112 2.254 0 4.08 1.84 4.08 4.112M51.055 30.581c0 .987-.794 1.788-1.773 1.788-.98 0-1.774-.801-1.774-1.788s.794-1.788 1.774-1.788c.979 0 1.773.801 1.773 1.788M10.39 8.919a1.827 1.827 0 0 1-1.82 1.834c-1.005 0-1.82-.82-1.82-1.834 0-1.013.815-1.834 1.82-1.834 1.005 0 1.82.82 1.82 1.834" fill="#4D4C4E"/><path d="M17.558 6.434c0 2.152-1.732 3.897-3.867 3.897-2.136 0-3.867-1.745-3.867-3.897 0-2.153 1.731-3.898 3.867-3.898 2.135 0 3.867 1.745 3.867 3.898M50.154 14.514c0 6.213-4.997 11.25-11.162 11.25-6.166 0-11.163-5.037-11.163-11.25 0-6.214 4.997-11.25 11.163-11.25 6.165 0 11.162 5.036 11.162 11.25" fill="#4D4C4E"/><path d="M46.216 75.686v-6.328c0-5.49-3.288-10.201-7.985-12.256-1.119 4.61-5.234 8.037-10.154 8.037s-9.036-3.426-10.155-8.037a13.361 13.361 0 0 0-7.985 12.256v6.328h7.674v2.812h20.93v-2.812h7.675z" fill="#EAC463"/><path d="M16.565 73.225a1.05 1.05 0 0 0-1.047 1.055v4.219h2.093v-4.22a1.05 1.05 0 0 0-1.046-1.054M39.588 73.225a1.05 1.05 0 0 0-1.046 1.055v4.219h2.093v-4.22a1.05 1.05 0 0 0-1.047-1.054" fill="#292929" opacity=".2"/><path d="M38.231 57.102c-1.12 4.611-5.235 8.037-10.155 8.037-4.919 0-9.035-3.426-10.154-8.037a13.2 13.2 0 0 0-1.577.825c1.478 5.3 6.236 8.97 11.731 8.97s10.254-3.67 11.732-8.97a13.19 13.19 0 0 0-1.577-.825" fill="#F1DCA0"/>
  </g>
</svg>
